<svg width="372" height="307" viewBox="0 0 372 307" fill="none" xmlns="http://www.w3.org/2000/svg">
<path fill-rule="evenodd" clip-rule="evenodd" d="M147.729 303.491C84.4958 307.973 16.9036 254.764 16.9036 190.008C16.9036 125.249 117.131 152.847 149.643 101.451C227.544 -21.6111 384.81 176.417 329.523 198.519C218.743 242.773 299.414 292.731 147.729 303.491Z" fill="#F4F0EF"/>
<path d="M303.328 192.774C303.361 192.947 303.447 193.108 303.482 193.281C303.762 194.899 303.94 195.999 303.755 197.413C303.313 200.436 301.283 203.365 302.457 207.193C303.72 212.619 310.104 215.917 311.821 210.539C312.805 206.987 311.129 202.663 309.255 198.739C308.21 196.636 307.008 194.622 305.66 192.715C307.136 192.614 308.589 192.276 309.966 191.713C310.257 191.593 310.494 191.485 310.784 191.364C310.866 191.407 311.002 191.439 311.084 191.482C313.615 190.365 315.691 189.281 318.266 188.574C322.694 187.248 328.303 185.919 328.721 180.987C328.766 179.422 327.388 177.849 325.947 176.708C324 175.348 321.623 174.828 319.315 175.255C315.338 175.771 312.593 178.248 311.106 181.306C310.19 183.228 309.767 185.409 309.481 187.622C309.417 188.712 309.17 189.9 309.43 191.043C307.741 191.748 305.873 192.012 303.89 192.059C303.793 192.032 303.691 192.032 303.595 192.059C302.885 192.077 302.175 192.043 301.471 191.956C301.309 188.578 302.631 185.435 303.79 182.206C304.168 180.932 304.682 179.69 304.814 178.286C305.832 178.609 306.885 178.795 307.948 178.841C309.912 178.977 311.582 177.796 310.834 175.855C309.496 173.257 304.857 171.994 302.341 171.493C300.199 171.153 298.024 171.096 295.868 171.324C295.571 171.334 295.276 171.374 294.987 171.444C296.251 170.168 297.461 168.903 298.643 167.584C299.699 166.47 300.696 165.248 301.723 164.08C305.08 164.828 308.136 166.775 311.246 168.71C315.022 171.227 318.969 173.949 322.836 172.678C326.088 171.473 325.917 167.2 322.217 164.607C318.466 162.025 313.966 160.913 309.985 160.651C308.367 160.543 306.744 160.575 305.132 160.749C304.972 160.781 304.784 160.76 304.571 160.804L307.345 157.722C308.914 156.024 310.512 154.38 312.08 152.683C312.269 152.704 312.51 152.714 312.753 152.724C313.778 152.874 314.209 152.905 315.263 153.107C317.89 153.706 320.555 154.596 323.177 155.075C325.69 155.509 328.246 155.609 330.783 155.371C332.626 155.172 334.576 154.953 336.1 154.162C338.859 152.699 339.128 149.353 335.196 146.987C331.76 145.139 327.869 144.415 324.031 144.908C323.02 145.115 321.815 145.182 320.919 145.604L320.165 144.861L320.272 144.84C322.45 143.615 324.855 142.704 327.313 141.78C330.541 140.639 333.986 139.574 337.48 138.38C338.936 139.218 340.199 139.917 341.698 141.166C345.721 144.47 348.591 149.806 352.502 153.671C355.185 156.352 362.217 161.074 365.599 160.441C372.577 159.13 359.308 148.746 356.15 146.281C352.524 143.495 348.621 141.183 344.674 139.12C343.368 138.423 342.017 137.821 340.631 137.316C345.262 135.708 349.835 133.993 354.075 131.987C354.84 131.651 355.575 131.261 356.258 130.882L356.34 130.925C356.857 131.118 357.457 131.354 358.004 131.601C358.874 131.901 360.659 132.912 361.017 133.137C367.976 137.395 372.325 144.821 379.889 148.776C383.072 150.517 387.087 151.609 389.628 150.07C393.825 146.339 384.531 139.387 380.256 136.494C376.208 133.913 371.82 132.24 367.453 131.04C365.265 130.406 363.031 129.964 360.772 129.717C360.068 129.624 359.358 129.589 358.649 129.614C363.894 126.752 368.798 123.257 373.257 119.2C373.475 119.275 373.717 119.285 373.934 119.36C375.185 119.728 376.413 120.175 377.61 120.701C380.696 122.043 383.037 123.537 385.831 125.658C389.288 128.24 392.765 131.297 396.886 132.367C398.318 132.612 399.963 132.814 400.926 132.078C401.754 131.31 401.939 129.895 401.084 128.635C399.904 126.663 397.806 125.177 395.818 123.79C394.007 122.527 392.115 121.396 390.155 120.403C387.777 119.154 385.283 118.162 382.711 117.442C380.656 116.837 378.567 116.366 376.456 116.031C377.226 115.155 377.996 114.279 378.737 113.35L378.79 113.339C381.989 111.486 385.744 110.118 387.88 107.167C388.742 105.914 389.493 104.563 389.398 102.847C389.433 100.387 386.019 98.2145 383.567 97.9394C381.003 97.5662 379.265 99.0604 378.644 100.983C377.989 103.391 378.582 106.141 378.416 108.688C378.379 109.888 378.229 111.081 377.969 112.251C377.944 112.307 377.933 112.369 377.936 112.43C377.938 112.492 377.954 112.552 377.983 112.607C377.087 113.688 376.191 114.769 375.189 115.872C374.454 116.672 373.679 117.43 372.865 118.143C373.311 116.556 373.158 114.732 372.254 112.944C371.694 111.682 370.316 110.768 368.956 110.329C365.89 109.462 365.042 111.73 366.293 114.166C367.23 116.128 369.285 118.519 369.206 119.912C369.221 120.294 369.21 120.677 369.172 121.057C369.137 121.12 369.117 121.192 369.116 121.266C369.114 121.339 369.13 121.412 369.162 121.477C366.988 123.254 364.705 124.881 362.327 126.349C363.19 124.437 363.83 122.331 363.251 119.937C362.735 117.769 360.603 115.453 358.087 115.61C355.73 115.734 354.147 117.076 352.864 118.535C350.264 121.282 349.829 125.859 348.837 129.174C348.39 130.761 347.644 132.23 346.869 133.646C346.797 133.84 346.511 134.078 346.549 134.37C340.471 136.692 334.242 138.627 327.889 140.767C325.165 141.745 322.469 142.776 320.001 144.119C321.076 142.822 322.097 141.535 323.09 140.195C324.356 140.354 325.504 140.179 326.23 139.551C327.034 138.848 326.682 137.425 325.652 136.499C326.18 135.612 326.761 134.716 327.26 133.776C330.036 135.421 332.711 136.548 334.821 135.637C336.607 134.672 335.239 132.02 333.363 130.73C332.572 130.167 331.736 129.678 330.863 129.268C331.785 128.544 332.764 127.903 333.791 127.352C338.36 124.86 343.804 123.446 347.725 120.187C349.7 118.586 351.912 116.876 352.451 114.252C352.626 113.259 352.685 112.05 351.839 111.027C348.624 107.797 344.254 109.889 341.781 111.114C339.654 112.212 337.835 113.863 336.499 115.906C335.182 117.852 334.334 120.12 333.321 122.302C332.891 123.202 332.415 124.079 331.897 124.927C332.023 124.722 332.12 124.463 332.246 124.257C333.181 122.151 333.952 119.959 334.722 117.766C334.829 117.745 334.853 117.68 334.959 117.658C335.002 117.628 335.038 117.588 335.064 117.541C335.09 117.494 335.106 117.442 335.11 117.388C335.095 117.268 335.054 117.154 334.989 117.053C335.013 116.989 335.037 116.924 335.091 116.913C335.164 116.929 335.241 116.919 335.308 116.883C335.375 116.848 335.428 116.789 335.459 116.718C336.845 113.143 341.179 106.809 337.8 102.177C337.344 101.746 336.752 101.505 336.137 101.5C334.526 101.471 333.688 102.66 333.169 103.784C331.996 106.657 331.917 110.024 332.727 113.508C332.937 114.486 333.2 115.451 333.514 116.398C333.63 116.614 333.639 116.851 333.808 117.056C333.281 117.284 332.782 117.566 332.255 117.793C331.741 116.091 331.375 114.343 331.16 112.573C330.852 110.243 330.516 106.542 327.866 104.691C327.459 104.452 326.98 104.383 326.526 104.498C326.072 104.614 325.677 104.905 325.423 105.313C324.309 106.978 324.834 109.383 325.646 111.55C326.363 113.434 327.319 115.21 328.487 116.832C328.973 117.529 329.52 118.178 330.121 118.77L330.15 118.824C329.337 119.29 328.525 119.756 327.793 120.265C325.024 122.149 322.676 124.485 320.352 126.756C320.12 126.984 319.911 127.146 319.679 127.373C319.365 126.899 319.104 126.414 318.843 125.929C317.996 124.343 317.266 122.692 316.659 120.991C315.608 118.155 314.129 113.432 310.599 111.044C309.468 110.259 308.219 110.574 307.74 111.331C306.96 112.628 307.762 114.558 308.389 116.164C309.52 118.924 311.318 121.607 313.324 124.128C314.508 125.561 315.663 126.939 316.978 128.285C317.283 128.522 317.539 128.889 317.868 129.061C316.319 130.575 314.716 132.1 313.114 133.625C311.68 130.628 310.766 127.943 309.622 124.827C308.516 122.002 307.376 119.006 304.944 116.571C302.967 114.762 300.756 115.156 300.183 116.948C299.122 119.919 300.459 123.833 302.257 127.173C303.433 129.21 304.842 131.091 306.452 132.775C307.415 133.801 308.43 134.771 309.493 135.682C309.769 135.865 310.021 136.113 310.296 136.296C309.546 136.988 308.771 137.745 308.021 138.437L305.77 140.514C305.717 140.525 305.663 140.536 305.692 140.589C305.639 140.6 305.668 140.654 305.668 140.654C305.097 141.13 304.502 141.671 303.93 142.147L303.877 142.157C301.959 137.823 299.664 133.447 296.179 129.495C294.574 127.61 292.78 125.704 290.58 124.359C288.133 122.886 284.379 121.621 284.038 124.503C283.911 127.342 285.974 129.971 288.479 132.21C286.807 131.296 285.011 130.706 283.318 130.635C282.312 130.581 281.325 130.93 280.559 131.61C279.793 132.29 279.306 133.25 279.198 134.292C279.04 138.393 283.068 142.474 285.924 146.137C287.476 148.033 288.902 150.134 288.891 151.871C288.867 152.416 288.78 152.956 288.634 153.48C288.562 153.674 288.406 153.826 288.522 154.041C288.554 154.112 288.601 154.175 288.658 154.225C288.716 154.275 288.784 154.311 288.857 154.332C288.725 154.464 288.605 154.609 288.498 154.764C287.443 155.22 286.557 155.88 286.416 157.046C286.429 157.17 286.416 157.295 286.377 157.413C286.317 157.539 286.241 157.655 286.149 157.759C285.658 158.464 285.203 159.196 284.789 159.953C284.994 157.038 285.305 154.102 284.132 150.932C282.283 145.627 277.051 140.297 275.511 135.347C274.734 132.694 274.973 130.61 274.767 128.14C275.037 128.204 275.275 128.096 275.318 127.847C275.454 127.221 275.566 126.66 275.731 126.087C276.235 123.949 276.653 122.308 277.293 120.202C277.647 118.993 278.054 117.773 278.461 116.552L278.514 116.541C279.263 116.387 280.022 116.292 280.785 116.256C282.227 116.08 285.691 116.148 287.34 116.468C290.765 116.903 295.055 118.836 297.529 116.952C299.373 115.437 297.822 112.226 295.395 110.569C292.547 108.46 288.991 107.453 286.025 107.762C283.834 107.972 282.188 109.087 280.649 110.18C280.375 110.366 280.096 110.543 279.812 110.711C280.128 109.21 280.39 107.72 280.744 106.511C281.7 102.904 283.231 99.599 284.598 96.2074C284.869 96.2716 285.106 96.1632 285.348 96.1734C285.991 96.1612 286.635 96.1485 287.254 96.2015C289.123 96.3538 290.977 96.6747 292.793 97.1605C294.989 97.7274 297.224 98.586 299.434 98.8522C302.565 99.2875 305.656 98.7735 307.433 96.9135C309.075 95.0213 306.948 92.1661 304.341 90.7259C301.676 89.1778 298.725 88.526 296.011 88.4243C292.035 88.282 289.711 89.895 288.243 92.7689C287.841 93.4495 286.858 94.369 286.06 94.5327C285.776 94.6413 285.483 94.7214 285.184 94.772C285.431 94.2429 285.596 93.6704 285.814 93.0873C287.041 89.5448 287.3 85.9614 289.402 82.8378C290.52 81.2922 292.907 79.2473 294.089 77.2698C294.67 76.3729 295.251 75.4759 295.75 74.536C299.427 73.9019 304.076 74.744 308.16 74.2061C309.679 73.9546 311.189 73.4658 312.003 72.3403C313.654 70.0267 312.103 67.473 308.645 66.2073C304.965 64.748 301.939 66.2655 299.557 67.7706C298.793 68.3057 298.105 68.9506 297.514 69.6861C297.71 68.9443 297.949 68.2158 298.231 67.5046C298.818 66.068 299.534 65.203 300.754 64.1753C302.113 63.2142 303.39 62.1321 304.569 60.9412C305.471 60.4163 306.344 59.8379 307.183 59.2088C308.277 58.3863 309.371 57.5636 309.967 56.3645C310.815 54.7547 311.222 52.2177 309.003 50.3989C307.78 49.3334 305.941 48.9921 304.78 49.4695C301.997 50.9972 301.67 55.552 302.447 58.8632C302.634 59.5432 302.823 60.2227 303.011 60.9017L303.04 60.9554C302.522 61.4206 302.004 61.8858 301.457 62.297C300.487 62.9514 299.591 63.7172 298.785 64.58C298.737 62.7349 299.412 60.8017 299.278 58.7948C299.178 55.6438 296.916 52.0986 293.638 49.9581C289.542 47.5069 286.289 49.3703 287.167 53.1991C287.533 54.9791 288.597 56.7357 289.631 58.4386C290.858 60.281 292.168 62.1667 293.793 63.8681C294.605 64.7189 295.495 65.4938 296.413 66.3227C296.689 66.5685 296.985 66.7882 297.297 66.9792C296.731 68.2323 296.439 69.668 296.037 71.0071C295.394 73.0007 294.445 74.8724 293.227 76.5493C292.147 78.3863 289.784 80.3665 288.36 82.3336C288.088 82.7151 287.852 83.1242 287.658 83.5548C287.603 83.4362 287.525 83.3301 287.431 83.2423C286.818 80.6752 286.825 78.1609 286.536 75.647C286.085 71.0723 284.283 66.2959 278.91 63.4479C276.496 62.1475 273.357 61.4746 271.755 63.0001C269.949 64.8062 270.242 68.097 271.88 70.8116C274.185 74.7671 278.232 78.0061 282.256 80.6518C283.881 81.6952 285.351 82.2316 286.414 83.3299L286.472 83.4376C286.549 83.7835 286.653 84.1224 286.781 84.4514C286.82 84.5154 286.872 84.5692 286.935 84.6084C286.997 84.6477 287.067 84.6712 287.14 84.6773C286.088 87.2262 285.641 90.1301 284.774 92.5818C283.47 96.2 281.837 99.647 280.533 103.264C280.383 102.876 280.195 102.196 280.045 101.808C279.443 99.8666 278.952 97.8896 278.574 95.8875C277.508 90.7207 276.017 84.3245 269.846 80.9822C261.774 77.072 255.283 81.8131 260.527 89.4741C263.402 93.6117 267.948 96.5694 272.475 99.0519C274.758 100.439 277.244 101.545 278.81 103.139C279.071 103.485 279.293 103.861 279.472 104.259C279.588 104.475 279.568 104.658 279.762 104.798L280.009 104.927C279.917 105.305 279.771 105.694 279.679 106.072C278.923 108.62 278.524 111.395 277.932 114.029C277.789 114.68 277.599 115.318 277.365 115.94C277.311 115.951 277.341 116.005 277.317 116.07C277.171 116.458 277.079 116.836 276.935 117.225C274.343 114.165 272.928 110.328 270.405 106.955C267.925 103.993 264.073 100.894 260.312 100.827C254.787 100.882 258.546 108.309 261.592 111.335C264.082 113.876 267.269 115.736 270.539 116.98C270.915 118.339 271.399 119.676 271.91 121.067C271.542 120.604 271.121 120.152 270.755 119.688C269.715 118.525 267.226 115.326 265.696 115.998C264.259 116.951 266.603 119.881 268.04 120.903C269.401 121.963 270.932 122.763 272.562 123.267L272.615 123.256C273.001 124.466 273.276 125.712 273.435 126.977C273.555 127.976 273.623 128.981 273.636 129.987C273.525 129.89 273.384 129.738 273.273 129.643C272.741 129.094 272.263 128.534 271.784 127.973C270.687 126.702 269.696 125.411 268.313 124.377C265.736 122.332 263.475 123.513 265.22 126.207C266.564 128.265 269.098 129.242 271.27 129.874C271.705 130.023 272.794 130.399 273.296 130.894L273.325 130.948C273.437 131.044 273.495 131.152 273.606 131.249C273.725 133.558 274.062 135.943 275.473 138.346C278.141 143.304 282.467 148.161 283.412 152.994C284.01 156.521 283.185 160.041 283.361 163.775C283.426 168.07 284.386 172.6 284.586 176.927C284.668 177.628 284.749 178.329 284.855 178.967C283.42 177.286 281.906 175.682 280.315 174.153C277.027 171.118 273.686 168.092 270.582 164.959C270.598 164.659 270.659 164.364 270.762 164.084C271.051 162.998 271.488 161.962 272.061 161.006C273.494 158.617 276.829 156.139 277.446 152.781C278.426 148.453 273.175 145.28 269.293 146.853C265.9 148.566 265.922 153.109 266.258 156.81C266.435 158.328 266.728 159.828 267.136 161.297L266.715 160.845C264.525 158.422 262.437 155.858 260.271 153.37C260.261 153.132 260.034 152.82 259.943 152.54C259.637 151.979 259.38 151.391 259.175 150.782C258.426 148.842 257.789 145.681 257.82 143.76C257.755 139.465 260.283 136.254 259.236 131.562C258.72 128.736 255.53 124.783 252.539 126.473C251.595 127.025 251.153 128.073 250.762 128.991C250.127 130.559 249.903 132.339 249.949 134.184C250.046 136.864 250.588 139.506 251.55 141.993C252.139 143.573 252.828 145.111 253.613 146.596C249.72 143.205 245.47 140.247 241.611 137.029C241.637 136.962 241.646 136.89 241.639 136.818C241.631 136.747 241.607 136.678 241.568 136.619C241.491 136.275 241.442 135.925 241.419 135.572C241.352 134.569 241.488 132.626 241.958 131.632C243.693 128.046 245.669 124.469 245.464 120.024C245.337 114.844 243.916 106.16 236.976 103.035C232.226 101.017 230.069 104.809 230.049 108.284C229.701 114.339 232.914 120.86 235.551 127.081C236.619 129.615 237.425 131.663 238.27 134.003C237.272 133.036 236.326 132.011 235.437 130.934C232.981 127.907 231.251 124.911 229.183 121.506C227.395 118.402 225.394 115.341 223.606 112.237C223.259 111.59 222.935 110.879 222.587 110.232C222.621 110.196 222.648 110.153 222.665 110.105C222.681 110.058 222.688 110.007 222.683 109.956C222.678 109.905 222.663 109.857 222.638 109.813C222.613 109.769 222.579 109.732 222.539 109.703C220.011 106.871 218.455 104.198 216.188 101.192C212.731 96.6351 208.709 92.0144 203.618 88.8099C201.359 87.358 198.907 87.0829 198.074 89.0487C197.575 90.6471 198.458 92.6199 199.309 94.4202C200.207 96.091 201.188 97.8036 202.484 99.334C204.596 101.833 207.178 103.997 209.862 106.019C212.961 108.297 216.246 110.286 219.679 111.965L223.046 113.609C223.13 113.652 223.223 113.674 223.317 113.673C224.472 115.71 225.815 117.768 227.023 119.794C226.675 119.727 226.331 119.638 225.993 119.527C224.329 119.094 222.713 118.483 221.171 117.703C215.613 114.953 210.43 110.809 204.345 108.946C203.179 108.647 201.965 108.476 201.069 108.899C200.565 109.168 200.173 109.619 199.967 110.169C199.762 110.718 199.757 111.327 199.955 111.88C200.751 114.35 203.275 116.405 205.645 117.954C211.153 121.492 217.528 123.895 223.29 123.732C225.221 123.695 227.118 123.485 228.729 122.856L228.782 122.845C230.537 125.777 232.343 128.697 234.572 131.412C236.491 133.771 238.802 135.87 241.187 137.775C241.553 138.093 241.932 138.394 242.323 138.679C239.561 138.048 236.994 136.899 234.095 135.578C231.116 134.214 228.141 132.969 225.065 131.864C221.394 130.642 217.36 129.076 213.949 129.655C211.873 130.081 211.446 132.143 212.92 134.114C214.258 136.055 216.488 137.452 218.5 138.775C221.9 140.862 225.591 142.386 229.441 143.294C233.315 144.235 237.171 144.701 240.838 144.488C243.354 144.331 245.948 144.099 248.169 143.284C248.222 143.273 248.193 143.22 248.193 143.22C251.186 145.598 254.126 147.987 256.645 150.583C258.187 152.242 259.676 153.911 261.112 155.592C257.314 155.362 253.549 154.73 249.874 153.706C244.674 152.499 238.221 150.171 234.721 153.222C232.562 154.921 233.421 158.275 236.275 160.503C239.016 162.633 242.349 163.446 245.392 163.72C250.109 164.249 254.019 162.73 257.432 160.834C258.903 160.054 260.766 159.014 262.039 158.633C262.399 158.5 262.775 158.423 263.157 158.404L263.476 158.339C264.433 159.458 265.473 160.622 266.483 161.732C266.875 162.13 267.213 162.539 267.576 162.884L267.634 162.992C267.692 163.099 267.774 163.142 267.938 163.228L269.534 164.876C269.528 164.937 269.535 164.999 269.556 165.057C269.577 165.115 269.61 165.168 269.653 165.21C269.774 165.312 269.914 165.385 270.064 165.425C272.637 168.009 275.339 170.507 278.095 172.994C280.453 175.113 282.67 177.398 284.729 179.832C284.84 179.928 284.927 180.09 285.067 180.241C285.09 180.38 285.087 180.523 285.057 180.662C284.721 184.321 285.304 188.15 285.915 192.034C283.674 193.69 279.736 193.181 276.687 194.105C274.568 194.779 272.864 196.443 272.983 198.754C273.059 201.311 274.997 204.145 277.744 205.736C281.512 208.015 285.137 206.076 285.797 203.128C286.409 200.968 286.56 198.723 286.736 196.414C287.295 198.992 287.83 201.634 288.066 204.159C288.441 206.834 288.066 209.544 288.128 212.404C288.2 212.867 288.084 213.31 288.262 213.752C288.548 214.173 289.269 214.085 289.196 213.621C289.023 211.981 289.228 209.725 289.258 207.804C289.222 205.91 289.093 204.019 288.87 202.139C288.51 199.162 287.689 196.099 287.111 193.046L287.169 192.495C287.177 192.466 287.178 192.435 287.172 192.405C287.166 192.375 287.154 192.347 287.135 192.323C287.613 192.224 287.61 192.106 287.929 192.04C289.705 191.497 291.553 191.418 293.517 191.553C293.446 191.748 293.507 191.974 293.406 192.115C293.342 192.546 293.246 192.806 293.202 193.054C292.756 194.641 292.034 196.046 291.341 197.504C290.052 200.162 288.598 203.392 290.754 206.958C294.354 213.101 301.264 212.104 299.787 206.064C299.088 202.676 296.366 199.046 295.333 196.027C294.986 194.721 294.899 193.901 295.2 192.703C295.25 192.391 295.347 192.088 295.487 191.807C297.214 192.052 298.917 192.361 300.696 192.594C301.569 192.713 302.448 192.773 303.328 192.774ZM272.144 118.986C271.931 118.371 271.772 117.746 271.589 117.185C272.024 117.334 272.512 117.474 272.919 117.571C273.925 117.903 274.602 118.063 275.404 118.677L275.433 118.73L275.515 118.773C275.738 118.967 275.883 119.237 276.129 119.366C276.105 119.43 276.134 119.484 276.081 119.495C275.391 121.637 274.807 123.814 274.33 126.017C274.307 126.082 274.335 126.136 274.283 126.147C273.974 123.817 273.018 121.38 272.144 118.986ZM291.815 175.328C292.401 175.208 294.631 175.289 295.173 175.418C295.694 175.498 296.209 175.612 296.716 175.76C295.934 177.113 295.48 178.643 295.392 180.219C294.828 179.636 294.184 179.143 293.482 178.756C292.19 177.945 290.768 177.385 289.284 177.104L289.255 177.05C289.691 176.542 290.126 176.033 290.591 175.579L290.644 175.568C291.022 175.431 291.416 175.35 291.815 175.328ZM307.683 155.501C307.301 153.107 306.639 150.771 305.714 148.544C305.11 147.072 304.434 145.633 303.689 144.232C303.556 143.972 303.403 143.723 303.23 143.489L304.087 142.775C306.114 143.795 307.908 145.043 309.929 146.604C311.036 147.454 312.231 148.465 313.502 149.401C311.6 151.467 309.615 153.49 307.684 155.501L307.683 155.501ZM327.35 121.313C328.857 120.209 330.452 119.242 332.118 118.421C332.461 118.291 332.723 118.117 333.066 117.987C332.46 119.607 331.883 121.281 331.195 122.858C330.507 124.435 329.738 125.969 328.966 127.503C328.923 127.534 328.888 127.574 328.862 127.621C328.836 127.667 328.82 127.72 328.816 127.774C328.769 127.903 328.69 127.979 328.642 128.108C326.919 127.574 325.14 127.256 323.345 127.16C322.484 127.097 321.676 127.023 320.844 127.014C323.017 125.013 325.138 123.023 327.35 121.313V121.313ZM319.139 128.682C321.103 129.476 323.565 131.305 326.123 132.875C325.595 133.761 325.119 134.636 324.563 135.468C323.62 134.929 322.599 134.553 321.54 134.353C318.973 133.833 316.344 133.726 313.746 134.036C315.528 132.293 317.387 130.476 319.139 128.682ZM310.357 137.183C310.548 137.018 310.729 136.841 310.899 136.653C311.253 136.761 311.654 136.738 312.007 136.845C313.362 137.166 314.774 137.594 316.133 138.034C317.628 138.505 319.698 139.278 321.619 139.662C320.626 141.002 319.551 142.299 318.476 143.597C317.122 142.618 315.593 141.974 314.07 141.448C312.682 140.948 311.247 140.6 309.789 140.411C308.845 140.305 307.931 140.254 307.017 140.202C308.183 139.184 309.297 138.177 310.357 137.182V137.183ZM291.741 150.034C292.647 148.532 293.548 146.911 294.043 145.195C294.536 146.11 295.028 147.027 295.604 147.986C293.896 149.242 292.257 150.597 290.695 152.044C291.043 151.373 291.392 150.703 291.741 150.033L291.741 150.034ZM290.18 153.943C292.058 152.091 294.061 150.38 296.173 148.825C297.908 151.504 299.886 154.004 302.08 156.291C302.835 157.034 303.671 157.82 304.45 158.498C304.544 158.587 304.646 158.666 304.754 158.734C303.495 160.129 302.265 161.578 301.036 163.027C300.981 163.008 300.924 163.005 300.868 163.016C300.812 163.028 300.76 163.054 300.716 163.092C300.678 163.11 300.644 163.137 300.616 163.17C300.589 163.204 300.569 163.243 300.558 163.285C300.547 163.328 300.545 163.372 300.552 163.415C300.559 163.458 300.576 163.499 300.6 163.535C299.907 164.335 299.268 165.124 298.547 165.871C298.026 163.584 297.611 161.276 296.553 158.98C295.23 156.079 293.04 153.656 290.18 153.943ZM285.621 176.777C285.344 171.868 284.268 167.122 284.378 162.492C284.393 162.19 284.378 161.834 284.394 161.532C284.959 161.595 285.033 160.742 285.314 160.385C285.638 159.78 285.992 159.229 286.345 158.678C286.833 160.134 287.833 161.663 288.931 162.935C290.449 164.658 292.601 165.473 294.521 166.516C294.889 166.735 295.24 166.983 295.57 167.259C295.599 167.312 295.711 167.409 295.74 167.463C295.822 167.506 295.967 167.775 296.049 167.819C296.158 167.966 296.246 168.13 296.31 168.304C294.354 170.38 292.233 172.37 290.224 174.458C290.402 172.927 290.403 171.38 290.227 169.85C290.078 168.803 289.842 167.595 288.996 166.572C288.377 165.861 287.216 165.68 286.727 166.198C286.209 166.664 286.213 167.441 286.189 168.164C286.27 169.523 286.675 170.936 287.158 172.273C287.565 173.396 287.89 174.55 288.128 175.725C288.194 176.011 288.232 176.304 288.244 176.598C287.45 177.539 286.685 178.533 285.95 179.582C285.857 178.643 285.713 177.715 285.621 176.777H285.621ZM287.832 191.103C287.471 191.187 287.116 191.299 286.772 191.44L286.719 191.451C286.324 188.959 285.997 186.154 285.863 184.147C285.823 183.749 285.825 183.347 285.868 182.949C285.897 183 285.937 183.043 285.985 183.075C286.033 183.106 286.088 183.126 286.144 183.132C286.579 183.281 286.889 182.979 286.657 182.548C286.566 182.268 286.527 181.976 286.435 181.696C286.648 181.653 286.803 181.501 286.74 181.275C286.794 181.264 286.793 181.264 286.876 181.307C287.407 181.337 287.932 181.43 288.443 181.584C289.449 181.916 291.258 182.862 292.67 183.29C293.623 183.634 294.702 183.771 295.471 183.554C295.543 184.236 295.669 184.911 295.848 185.571C296.381 187.598 297.266 189.505 298.461 191.199C298.519 191.306 298.63 191.403 298.688 191.511C295.23 190.903 290.963 190.222 287.832 191.103H287.832Z" fill="#E4DCD8"/>
<path fill-rule="evenodd" clip-rule="evenodd" d="M93.9581 120.417C72.1576 125.777 39.412 145.258 31.868 109.182C26.6998 84.4633 88.0737 86.5739 100.82 72.8782C128.861 42.7502 172.02 70.0068 153.565 79.6921C116.585 99.0895 146.254 107.557 93.9581 120.417Z" fill="#F4F0EF"/>
<path fill-rule="evenodd" clip-rule="evenodd" d="M260.457 160.703C252.236 173.525 169.447 180.557 158.686 164.8C142.053 140.47 189.953 70.9381 189.953 70.9381C189.335 67.6147 189.22 59.5808 191.735 56.4457C195.545 51.6805 189.878 47.1548 193.403 46.1268C197.934 44.8106 201.565 49.2664 209.458 51.4946C214.134 52.8012 213.481 65.58 209.06 72.7325C207.487 75.27 204.481 75.5018 204.481 75.5018C204.481 75.5018 186.003 122.834 189.927 131.899C194.795 143.112 217.968 130.202 253.574 124.97C270.601 122.464 264.987 153.635 260.457 160.703Z" fill="#CF9A83"/>
<mask id="mask0_1_6313" style="mask-type:luminance" maskUnits="userSpaceOnUse" x="155" y="45" width="111" height="129">
<path d="M260.457 160.703C252.236 173.525 169.447 180.557 158.686 164.8C142.053 140.47 189.953 70.9381 189.953 70.9381C189.335 67.6147 189.22 59.5808 191.735 56.4457C195.545 51.6805 189.878 47.1548 193.403 46.1268C197.934 44.8106 201.565 49.2664 209.458 51.4946C214.134 52.8012 213.481 65.58 209.06 72.7325C207.487 75.27 204.481 75.5018 204.481 75.5018C204.481 75.5018 186.003 122.834 189.927 131.899C194.795 143.112 217.968 130.202 253.574 124.97C270.601 122.464 264.987 153.635 260.457 160.703Z" fill="white"/>
</mask>
<g mask="url(#mask0_1_6313)">
<path fill-rule="evenodd" clip-rule="evenodd" d="M214.654 126.061C217.771 128.549 218.507 134.441 219.035 138.127C219.596 142.022 219.425 146.021 218.175 149.776C216.295 155.428 212.395 160.05 210.792 165.805C209.602 170.086 209.886 174.912 211.281 179.114C211.931 181.079 212.915 182.907 214.185 184.51C221.717 193.96 237.226 190.432 246.737 187.109C257.44 183.37 268.013 176.244 273.536 165.678C282.104 149.295 274.331 129.086 259.57 120.001C253.715 116.44 247.122 114.402 240.349 114.059C232.305 113.62 224.046 115.208 217.096 119.541L214.654 126.061Z" fill="#4692B6"/>
<path fill-rule="evenodd" clip-rule="evenodd" d="M183.34 73.9951C177.992 84.5006 171.094 107.472 167.495 118.683C162.903 133.078 161.074 143.989 168.131 156.879C176.481 172.171 204.354 166.194 217.993 162.266C221.002 161.397 223.974 160.391 226.899 159.252C231.026 157.681 235.033 155.79 238.887 153.594C246.84 148.967 253.48 142.608 259.424 135.478C261.134 133.434 262.665 131.199 264.474 129.255C265.011 128.673 265.826 127.816 266.701 127.922C268.172 128.098 268.51 130.923 268.708 132.022C269.464 136.575 269.404 141.331 269.106 145.924C267.933 164.075 262.267 182.207 246.68 192.121C237.058 198.246 225.07 200.149 214.096 201.826C203.141 203.498 191.61 205.01 180.517 203.958C160.715 202.078 139.82 193.121 128.985 174.84C116.461 153.662 122.226 125.36 132.505 104.529C135.069 99.3365 138.032 94.3423 141.551 89.7913C148.409 80.9227 157.594 72.8498 168.43 70.1418L183.34 73.9951Z" fill="black" fill-opacity="0.1"/>
</g>
<path fill-rule="evenodd" clip-rule="evenodd" d="M100.374 46.9904C100.209 46.7157 99.9909 46.48 99.7333 46.2983C99.4756 46.1167 99.1843 45.9931 98.8781 45.9356C98.5773 45.8762 98.2682 45.8796 97.9687 45.9456C97.6692 46.0117 97.3853 46.1391 97.1336 46.3205L0.939984 118.403C0.468986 118.759 0.146692 119.289 0.039204 119.885C-0.0682842 120.48 0.0471823 121.096 0.361917 121.606L112.838 305.919C113.001 306.19 113.217 306.422 113.472 306.6C113.728 306.778 114.016 306.897 114.319 306.951C114.62 307.017 114.931 307.016 115.231 306.95C115.532 306.884 115.816 306.753 116.065 306.566L212.257 234.483C212.729 234.134 213.054 233.609 213.164 233.017C213.274 232.425 213.162 231.812 212.849 231.304L100.374 46.9904Z" fill="#E8E0D0"/>
<path fill-rule="evenodd" clip-rule="evenodd" d="M173.324 191.928C171.723 189.305 168.746 187.444 165.256 186.91C161.766 186.376 158.184 187.214 155.546 189.19L105.288 226.851C98.8832 231.65 97.1571 239.395 101.05 245.775C102.652 248.398 105.627 250.257 109.117 250.79C112.607 251.324 116.189 250.486 118.814 248.519L169.085 210.849C175.476 206.06 177.217 198.308 173.324 191.928ZM172.24 192.378L172.241 192.381C175.887 198.354 174.256 205.613 168.27 210.099L117.999 247.77C115.657 249.526 112.451 250.278 109.335 249.801C106.231 249.314 103.562 247.664 102.133 245.323C98.4877 239.35 100.118 232.09 106.104 227.604L156.375 189.933C158.717 188.178 161.923 187.425 165.026 187.909C168.141 188.387 170.811 190.037 172.24 192.378H172.24Z" fill="white"/>
<path fill-rule="evenodd" clip-rule="evenodd" d="M139.42 138.165C139.012 137.496 138.477 136.922 137.847 136.476C137.218 136.03 136.508 135.723 135.76 135.574C135.013 135.424 134.244 135.436 133.5 135.607C132.757 135.778 132.056 136.106 131.438 136.569L68.5611 183.687C67.2569 184.663 66.3607 186.121 66.0562 187.763C65.7517 189.405 66.062 191.106 66.9235 192.517C67.3311 193.185 67.8652 193.758 68.4933 194.204C69.1213 194.649 69.83 194.956 70.5759 195.106C71.3219 195.256 72.0895 195.246 72.8316 195.077C73.5738 194.907 74.2749 194.582 74.8922 194.121L137.782 146.995C139.087 146.019 139.983 144.561 140.288 142.92C140.592 141.278 140.282 139.578 139.421 138.166L139.42 138.165ZM152.799 160.083C152.391 159.415 151.856 158.84 151.226 158.394C150.597 157.948 149.887 157.642 149.139 157.492C148.392 157.343 147.623 157.354 146.88 157.525C146.136 157.696 145.435 158.024 144.817 158.487L81.9399 205.606C80.6357 206.582 79.7395 208.04 79.435 209.682C79.1305 211.324 79.4408 213.025 80.3022 214.436C80.7098 215.104 81.244 215.677 81.872 216.123C82.5 216.568 83.2087 216.875 83.9547 217.025C84.7006 217.175 85.4682 217.165 86.2103 216.996C86.9525 216.827 87.6536 216.501 88.2709 216.04L151.161 168.913C152.465 167.938 153.361 166.48 153.666 164.838C153.971 163.197 153.66 161.496 152.799 160.085V160.083Z" fill="white"/>
<path d="M94.909 144.862C106.925 133.114 109.082 115.183 99.7254 104.811C90.3691 94.4387 73.0431 95.5532 61.0267 107.3C49.0103 119.047 46.8539 136.979 56.2102 147.351C65.5665 157.723 82.8926 156.609 94.909 144.862Z" fill="white"/>
<path fill-rule="evenodd" clip-rule="evenodd" d="M75.4698 138.99C71.983 138.935 68.8398 137.342 66.9921 134.315C63.6425 128.826 65.8293 120.685 71.8867 116.145C77.9441 111.606 85.6036 112.373 88.9525 117.862C91.119 121.412 90.9419 126.08 88.942 130.151C97.1537 127.275 104.502 128.7 106.355 134.011C108.523 140.247 102.28 149.499 92.4322 154.652C82.5847 159.806 72.7991 158.937 70.6312 152.701C69.2786 148.737 71.2833 143.562 75.4698 138.99Z" fill="#E1D4CF"/>
<path fill-rule="evenodd" clip-rule="evenodd" d="M253.01 265.172C255.117 223.779 241.141 187.754 242.413 164.09C243.228 149.079 236.986 126.799 260.684 123.189C281.002 120.095 306.112 125.686 311.062 131.377C321.082 142.86 317.444 205.119 307.921 213.611C288.835 226.296 267.921 252.498 253.01 265.172Z" fill="#96B6C5"/>
<mask id="mask1_1_6313" style="mask-type:luminance" maskUnits="userSpaceOnUse" x="242" y="122" width="76" height="144">
<path d="M253.01 265.172C255.117 223.779 241.141 187.754 242.413 164.09C243.228 149.079 236.986 126.799 260.684 123.189C281.002 120.095 306.112 125.686 311.062 131.377C321.082 142.86 317.444 205.119 307.921 213.611C288.835 226.296 267.921 252.498 253.01 265.172Z" fill="white"/>
</mask>
<g mask="url(#mask1_1_6313)">
<path fill-rule="evenodd" clip-rule="evenodd" d="M294.101 154.122C292.451 156.415 291.516 159.253 290.741 161.968C288.693 168.97 288.614 175.957 289.548 183.161C290.463 190.276 292.272 197.647 291.039 204.843C290.105 210.167 287.361 214.568 284.677 219.089C277.938 230.458 273.962 234.191 264.836 242.621C259.647 247.397 249.528 267.032 251.059 274.673C252.113 280.003 260.204 274.828 263.246 273.2C271.497 268.773 278.873 262.549 286.924 257.688C298.415 250.732 311.338 244.723 319.947 233.775C331.378 219.221 332.75 197.216 328.356 179.573C326.268 171.174 322.591 162.384 315.334 157.566L294.101 154.122Z" fill="black" fill-opacity="0.1"/>
</g>
<path fill-rule="evenodd" clip-rule="evenodd" d="M213.753 175.211C212.742 173.556 211.417 172.133 209.859 171.03C208.302 169.927 206.544 169.166 204.694 168.796C202.844 168.425 200.941 168.451 199.101 168.873C197.261 169.295 195.523 170.104 193.995 171.25L129.679 219.444C126.431 221.877 124.2 225.511 123.443 229.601C122.686 233.692 123.461 237.929 125.608 241.444C126.618 243.099 127.943 244.523 129.5 245.627C131.058 246.731 132.816 247.491 134.666 247.862C136.517 248.233 138.42 248.207 140.26 247.784C142.1 247.361 143.838 246.552 145.366 245.405L209.681 197.21C212.927 194.776 215.156 191.143 215.913 187.054C216.67 182.965 215.898 178.73 213.754 175.214L213.753 175.211Z" fill="#4692B6"/>
<path d="M138.659 226.836L142.693 232.69L141.418 233.642L137.383 227.788L138.659 226.836ZM142.602 227.631L143.301 228.644L140.702 230.584L140.004 229.571L142.602 227.631ZM141.152 224.976L141.853 225.993L139.004 228.119L138.303 227.102L141.152 224.976ZM143.654 228.746L143.596 228.661C143.376 228.342 143.218 228.016 143.122 227.682C143.024 227.345 142.993 227.013 143.029 226.686C143.064 226.359 143.169 226.047 143.344 225.75C143.517 225.451 143.765 225.18 144.088 224.939C144.417 224.694 144.745 224.534 145.073 224.459C145.402 224.38 145.721 224.376 146.03 224.446C146.339 224.516 146.631 224.653 146.906 224.857C147.179 225.059 147.426 225.319 147.646 225.638L147.704 225.723C147.922 226.039 148.08 226.366 148.178 226.703C148.274 227.037 148.305 227.369 148.271 227.698C148.236 228.025 148.131 228.337 147.956 228.634C147.781 228.931 147.531 229.201 147.205 229.444C146.881 229.686 146.555 229.846 146.226 229.925C145.898 230.004 145.579 230.008 145.27 229.939C144.959 229.866 144.667 229.729 144.394 229.527C144.119 229.323 143.872 229.062 143.654 228.746ZM144.821 227.747L144.879 227.832C144.997 228.003 145.121 228.154 145.25 228.285C145.383 228.414 145.519 228.511 145.659 228.577C145.799 228.643 145.942 228.67 146.088 228.658C146.235 228.642 146.383 228.578 146.532 228.467C146.68 228.356 146.784 228.232 146.843 228.094C146.901 227.954 146.922 227.804 146.907 227.645C146.892 227.486 146.846 227.321 146.769 227.152C146.694 226.98 146.597 226.809 146.479 226.637L146.421 226.553C146.305 226.384 146.181 226.236 146.051 226.11C145.921 225.98 145.786 225.88 145.644 225.812C145.502 225.743 145.356 225.716 145.208 225.729C145.062 225.741 144.913 225.803 144.762 225.916C144.615 226.025 144.514 226.15 144.456 226.29C144.399 226.43 144.379 226.581 144.395 226.743C144.412 226.905 144.458 227.072 144.533 227.244C144.608 227.41 144.704 227.578 144.821 227.747ZM148.379 223.393L150.678 226.73L149.457 227.641L146.46 223.291L147.606 222.435L148.379 223.393ZM148.922 221.404L149.709 222.588C149.651 222.619 149.579 222.663 149.491 222.72C149.402 222.775 149.328 222.824 149.268 222.869C149.111 222.986 148.99 223.107 148.903 223.233C148.816 223.354 148.761 223.481 148.737 223.612C148.716 223.742 148.726 223.876 148.767 224.016C148.806 224.153 148.875 224.294 148.975 224.439L148.664 224.495C148.466 224.208 148.313 223.925 148.203 223.645C148.094 223.366 148.031 223.1 148.015 222.848C147.998 222.593 148.031 222.361 148.116 222.152C148.201 221.942 148.34 221.766 148.533 221.621C148.595 221.575 148.662 221.531 148.733 221.49C148.804 221.45 148.867 221.421 148.922 221.404ZM151.675 219.398L152.786 218.568L155.676 222.762C155.951 223.161 156.096 223.566 156.111 223.978C156.128 224.387 156.03 224.781 155.817 225.159C155.604 225.537 155.287 225.883 154.867 226.197C154.684 226.333 154.476 226.45 154.243 226.547C154.012 226.647 153.774 226.712 153.531 226.744C153.29 226.777 153.059 226.763 152.838 226.701L152.849 225.572C153.065 225.622 153.286 225.628 153.512 225.589C153.74 225.553 153.961 225.455 154.174 225.295C154.37 225.149 154.511 224.989 154.597 224.816C154.682 224.642 154.712 224.459 154.687 224.267C154.664 224.073 154.584 223.877 154.447 223.679L152.258 220.503L151.675 219.398ZM150.381 223.737L150.323 223.653C150.095 223.323 149.928 222.993 149.819 222.664C149.709 222.332 149.661 222.013 149.675 221.707C149.69 221.395 149.766 221.107 149.903 220.842C150.043 220.575 150.246 220.343 150.512 220.144C150.799 219.93 151.075 219.809 151.341 219.781C151.604 219.751 151.864 219.793 152.12 219.906C152.374 220.017 152.628 220.182 152.883 220.402C153.135 220.62 153.39 220.87 153.648 221.152L153.748 221.297C153.913 221.628 154.046 221.953 154.147 222.271C154.248 222.59 154.304 222.895 154.315 223.187C154.325 223.476 154.275 223.747 154.165 224C154.055 224.248 153.871 224.468 153.613 224.661C153.349 224.858 153.074 224.98 152.787 225.028C152.5 225.076 152.213 225.057 151.925 224.971C151.639 224.884 151.365 224.735 151.102 224.526C150.839 224.316 150.599 224.053 150.381 223.737ZM151.543 222.741L151.602 222.826C151.72 222.997 151.845 223.145 151.978 223.269C152.114 223.391 152.253 223.484 152.396 223.548C152.541 223.61 152.686 223.636 152.829 223.627C152.973 223.612 153.113 223.554 153.249 223.453C153.447 223.305 153.578 223.143 153.641 222.965C153.706 222.783 153.713 222.593 153.663 222.395C153.616 222.195 153.523 221.99 153.383 221.782L153.092 221.36C152.974 221.188 152.851 221.047 152.723 220.936C152.595 220.824 152.464 220.747 152.332 220.704C152.202 220.659 152.067 220.652 151.927 220.683C151.787 220.71 151.643 220.779 151.494 220.89C151.361 220.99 151.266 221.109 151.209 221.25C151.15 221.387 151.125 221.538 151.135 221.701C151.144 221.864 151.185 222.035 151.256 222.213C151.326 222.388 151.422 222.564 151.543 222.741ZM154.593 220.581L154.535 220.496C154.315 220.177 154.157 219.851 154.061 219.517C153.963 219.18 153.932 218.848 153.967 218.521C154.003 218.194 154.108 217.882 154.283 217.585C154.455 217.286 154.704 217.015 155.027 216.774C155.356 216.529 155.684 216.369 156.012 216.294C156.341 216.215 156.66 216.211 156.968 216.281C157.277 216.35 157.569 216.488 157.845 216.692C158.118 216.894 158.365 217.154 158.584 217.473L158.643 217.558C158.861 217.874 159.018 218.201 159.116 218.538C159.212 218.872 159.244 219.204 159.21 219.533C159.174 219.86 159.069 220.172 158.895 220.469C158.72 220.766 158.47 221.036 158.143 221.279C157.82 221.521 157.494 221.681 157.165 221.76C156.836 221.839 156.518 221.843 156.209 221.774C155.898 221.701 155.606 221.564 155.333 221.362C155.057 221.157 154.811 220.897 154.593 220.581ZM155.759 219.582L155.817 219.667C155.936 219.838 156.06 219.989 156.189 220.12C156.321 220.249 156.457 220.346 156.598 220.412C156.738 220.478 156.881 220.505 157.027 220.493C157.174 220.477 157.322 220.413 157.47 220.302C157.619 220.191 157.723 220.067 157.782 219.929C157.84 219.789 157.861 219.639 157.846 219.48C157.831 219.321 157.785 219.156 157.707 218.987C157.633 218.815 157.536 218.644 157.418 218.472L157.36 218.388C157.243 218.219 157.12 218.071 156.99 217.945C156.86 217.815 156.724 217.715 156.582 217.647C156.44 217.578 156.295 217.551 156.146 217.564C156 217.576 155.852 217.638 155.7 217.751C155.554 217.86 155.452 217.985 155.395 218.125C155.338 218.265 155.317 218.416 155.334 218.578C155.351 218.74 155.397 218.907 155.471 219.079C155.547 219.245 155.643 219.413 155.759 219.582ZM159.546 213.522L160.153 214.403L157.641 216.278L157.034 215.397L159.546 213.522ZM156.867 213.89L158.092 212.976L160.893 217.041C160.976 217.162 161.054 217.243 161.127 217.286C161.2 217.329 161.278 217.34 161.362 217.318C161.444 217.293 161.536 217.243 161.638 217.167C161.711 217.113 161.771 217.063 161.82 217.019C161.868 216.975 161.912 216.932 161.951 216.891L162.577 217.799C162.497 217.912 162.404 218.022 162.3 218.128C162.197 218.237 162.077 218.343 161.938 218.447C161.675 218.643 161.416 218.769 161.162 218.825C160.911 218.879 160.669 218.848 160.436 218.734C160.201 218.617 159.978 218.404 159.765 218.096L156.867 213.89ZM163.209 212.055L166.783 217.242L165.562 218.153L161.412 212.13L162.55 211.28L163.209 212.055ZM166.739 211.374L166.798 211.458C167.016 211.775 167.183 212.095 167.299 212.418C167.413 212.738 167.469 213.052 167.467 213.358C167.467 213.662 167.404 213.947 167.278 214.211C167.15 214.473 166.952 214.704 166.684 214.905C166.428 215.095 166.168 215.206 165.905 215.236C165.642 215.262 165.378 215.223 165.114 215.12C164.85 215.013 164.59 214.86 164.335 214.661C164.08 214.457 163.83 214.224 163.585 213.96L163.472 213.795C163.297 213.45 163.157 213.115 163.05 212.788C162.944 212.462 162.886 212.154 162.876 211.865C162.865 211.573 162.914 211.303 163.023 211.055C163.133 210.807 163.315 210.587 163.571 210.396C163.837 210.198 164.109 210.074 164.387 210.025C164.665 209.975 164.941 209.997 165.214 210.089C165.488 210.177 165.753 210.33 166.01 210.548C166.267 210.766 166.51 211.042 166.739 211.374ZM165.573 212.373L165.515 212.288C165.393 212.111 165.268 211.959 165.14 211.831C165.011 211.7 164.879 211.601 164.746 211.534C164.611 211.465 164.476 211.434 164.339 211.442C164.203 211.451 164.067 211.506 163.931 211.607C163.785 211.716 163.678 211.833 163.609 211.957C163.541 212.081 163.508 212.213 163.51 212.354C163.51 212.492 163.542 212.639 163.605 212.794C163.672 212.947 163.763 213.111 163.878 213.284L164.183 213.727C164.324 213.926 164.475 214.085 164.636 214.204C164.798 214.319 164.967 214.377 165.143 214.38C165.319 214.378 165.506 214.304 165.701 214.158C165.839 214.055 165.933 213.939 165.982 213.809C166.031 213.674 166.044 213.529 166.019 213.373C165.997 213.215 165.946 213.052 165.866 212.884C165.789 212.715 165.691 212.544 165.573 212.373ZM170.088 210.671L168.802 208.805C168.712 208.674 168.615 208.576 168.511 208.511C168.407 208.447 168.295 208.419 168.174 208.428C168.054 208.436 167.927 208.49 167.794 208.59C167.682 208.673 167.598 208.766 167.542 208.869C167.489 208.969 167.466 209.074 167.474 209.182C167.484 209.288 167.527 209.396 167.602 209.506L166.381 210.417C166.247 210.222 166.164 210.007 166.134 209.774C166.103 209.541 166.124 209.301 166.194 209.053C166.267 208.804 166.392 208.561 166.568 208.324C166.743 208.084 166.969 207.86 167.249 207.651C167.58 207.404 167.914 207.242 168.252 207.164C168.59 207.082 168.914 207.098 169.222 207.213C169.529 207.325 169.8 207.553 170.036 207.896L171.292 209.718C171.473 209.98 171.629 210.176 171.761 210.305C171.894 210.429 172.027 210.524 172.16 210.591L172.207 210.66L170.975 211.58C170.831 211.497 170.68 211.373 170.524 211.21C170.366 211.043 170.221 210.864 170.088 210.671ZM169.127 208.941L169.611 209.626L169.004 210.079C168.869 210.18 168.763 210.285 168.688 210.394C168.616 210.501 168.571 210.608 168.553 210.714C168.534 210.818 168.538 210.921 168.564 211.023C168.592 211.12 168.638 211.215 168.703 211.309C168.763 211.398 168.84 211.462 168.931 211.504C169.021 211.542 169.116 211.554 169.217 211.54C169.318 211.526 169.417 211.482 169.513 211.41C169.672 211.292 169.786 211.158 169.853 211.01C169.924 210.86 169.959 210.716 169.959 210.578C169.957 210.438 169.928 210.327 169.873 210.247L170.526 210.551C170.553 210.693 170.573 210.847 170.584 211.013C170.594 211.176 170.581 211.346 170.545 211.523C170.507 211.698 170.435 211.871 170.329 212.044C170.225 212.214 170.07 212.377 169.864 212.53C169.598 212.729 169.319 212.854 169.027 212.906C168.733 212.955 168.453 212.93 168.188 212.832C167.925 212.732 167.706 212.554 167.53 212.3C167.373 212.072 167.274 211.839 167.233 211.602C167.192 211.365 167.21 211.124 167.287 210.88C167.366 210.634 167.509 210.388 167.714 210.141C167.917 209.892 168.185 209.644 168.516 209.396L169.127 208.941ZM173.893 207.569C173.837 207.489 173.764 207.436 173.672 207.411C173.582 207.385 173.457 207.393 173.297 207.435C173.139 207.476 172.931 207.554 172.671 207.671C172.428 207.783 172.191 207.871 171.958 207.935C171.724 207.996 171.503 208.025 171.295 208.022C171.086 208.016 170.893 207.969 170.718 207.881C170.541 207.79 170.388 207.65 170.258 207.463C170.133 207.281 170.051 207.079 170.014 206.859C169.98 206.637 169.992 206.409 170.052 206.174C170.113 205.937 170.225 205.704 170.387 205.473C170.551 205.241 170.768 205.024 171.04 204.822C171.413 204.543 171.776 204.363 172.131 204.281C172.483 204.197 172.806 204.207 173.1 204.312C173.392 204.415 173.633 204.603 173.821 204.877L172.6 205.788C172.523 205.675 172.434 205.593 172.335 205.541C172.236 205.489 172.128 205.472 172.011 205.491C171.891 205.507 171.761 205.568 171.62 205.673C171.511 205.755 171.428 205.847 171.372 205.949C171.317 206.047 171.289 206.147 171.289 206.249C171.29 206.349 171.322 206.444 171.383 206.532C171.425 206.594 171.477 206.64 171.538 206.672C171.6 206.699 171.675 206.712 171.762 206.712C171.849 206.707 171.951 206.686 172.067 206.648C172.186 206.608 172.325 206.552 172.483 206.478C172.817 206.314 173.14 206.193 173.453 206.113C173.768 206.032 174.061 206.027 174.33 206.097C174.603 206.166 174.841 206.348 175.044 206.643C175.177 206.836 175.256 207.045 175.281 207.27C175.308 207.493 175.284 207.724 175.208 207.964C175.132 208.203 175.006 208.439 174.83 208.671C174.655 208.904 174.427 209.124 174.148 209.333C173.749 209.631 173.36 209.809 172.982 209.868C172.604 209.927 172.268 209.898 171.974 209.781C171.681 209.659 171.453 209.48 171.29 209.244L172.436 208.388C172.541 208.529 172.658 208.621 172.786 208.663C172.917 208.703 173.05 208.705 173.187 208.668C173.321 208.629 173.455 208.559 173.588 208.46C173.721 208.361 173.819 208.259 173.882 208.155C173.945 208.052 173.978 207.95 173.98 207.851C173.981 207.749 173.952 207.655 173.893 207.569ZM177.648 204.765C177.593 204.685 177.519 204.633 177.427 204.608C177.338 204.581 177.213 204.589 177.053 204.632C176.895 204.672 176.686 204.751 176.427 204.867C176.184 204.98 175.947 205.068 175.714 205.132C175.48 205.193 175.259 205.222 175.051 205.219C174.842 205.213 174.649 205.165 174.474 205.077C174.297 204.986 174.143 204.847 174.014 204.659C173.888 204.477 173.807 204.276 173.77 204.056C173.736 203.834 173.748 203.606 173.807 203.371C173.869 203.134 173.981 202.9 174.142 202.67C174.306 202.438 174.524 202.221 174.795 202.018C175.168 201.74 175.532 201.56 175.886 201.478C176.239 201.393 176.562 201.403 176.856 201.509C177.148 201.612 177.388 201.8 177.577 202.073L176.356 202.984C176.278 202.872 176.19 202.789 176.091 202.738C175.992 202.686 175.884 202.669 175.766 202.688C175.647 202.704 175.517 202.764 175.376 202.869C175.266 202.951 175.184 203.043 175.128 203.146C175.073 203.244 175.045 203.344 175.044 203.446C175.046 203.546 175.078 203.64 175.138 203.729C175.181 203.79 175.233 203.837 175.294 203.868C175.356 203.895 175.43 203.909 175.517 203.909C175.605 203.904 175.707 203.883 175.823 203.845C175.942 203.805 176.08 203.748 176.239 203.674C176.572 203.511 176.896 203.389 177.208 203.31C177.524 203.229 177.816 203.223 178.086 203.294C178.359 203.363 178.597 203.544 178.8 203.839C178.933 204.032 179.012 204.241 179.036 204.466C179.064 204.689 179.039 204.921 178.963 205.16C178.887 205.399 178.762 205.635 178.586 205.868C178.41 206.1 178.183 206.321 177.904 206.529C177.505 206.827 177.116 207.006 176.738 207.065C176.36 207.124 176.024 207.094 175.73 206.977C175.436 206.855 175.208 206.676 175.046 206.44L176.192 205.585C176.297 205.725 176.414 205.817 176.542 205.86C176.672 205.9 176.806 205.902 176.942 205.865C177.077 205.825 177.211 205.756 177.344 205.656C177.477 205.557 177.575 205.456 177.638 205.352C177.701 205.248 177.733 205.147 177.736 205.047C177.737 204.945 177.708 204.851 177.648 204.765ZM180.399 202.713L179.064 198.953L179.835 198.378L180.537 199.973L181.741 203.543L181.111 204.013L180.399 202.713ZM177.855 199.856L180.566 202.569L181.467 203.748L180.716 204.308L176.677 200.735L177.855 199.856ZM182.7 200.885L181.138 197.405L182.316 196.526L184.281 201.648L183.53 202.208L182.7 200.885ZM179.929 198.308L182.919 200.807L183.886 201.943L183.248 202.419L180.395 200.085L179.178 198.869L179.929 198.308ZM183.833 198.755L183.775 198.67C183.555 198.351 183.397 198.025 183.301 197.691C183.203 197.354 183.172 197.022 183.208 196.695C183.243 196.368 183.348 196.056 183.523 195.759C183.696 195.46 183.944 195.189 184.267 194.948C184.596 194.703 184.924 194.543 185.252 194.468C185.581 194.389 185.9 194.385 186.209 194.455C186.518 194.525 186.81 194.662 187.085 194.866C187.358 195.068 187.605 195.328 187.825 195.647L187.883 195.732C188.101 196.048 188.259 196.375 188.357 196.712C188.453 197.046 188.484 197.378 188.45 197.707C188.415 198.034 188.31 198.346 188.135 198.643C187.96 198.94 187.71 199.21 187.384 199.453C187.06 199.695 186.734 199.855 186.405 199.934C186.077 200.013 185.758 200.017 185.449 199.948C185.138 199.875 184.846 199.738 184.573 199.536C184.298 199.332 184.051 199.071 183.833 198.755ZM185 197.756L185.058 197.841C185.176 198.012 185.3 198.163 185.429 198.294C185.561 198.423 185.698 198.52 185.838 198.586C185.978 198.652 186.121 198.679 186.267 198.667C186.414 198.651 186.562 198.587 186.71 198.476C186.859 198.365 186.963 198.241 187.022 198.103C187.08 197.963 187.101 197.813 187.086 197.654C187.071 197.495 187.025 197.33 186.948 197.161C186.873 196.989 186.776 196.818 186.658 196.646L186.6 196.562C186.484 196.393 186.36 196.245 186.23 196.119C186.1 195.989 185.965 195.889 185.823 195.821C185.681 195.752 185.535 195.725 185.387 195.738C185.241 195.75 185.092 195.812 184.941 195.925C184.794 196.034 184.693 196.159 184.635 196.299C184.578 196.439 184.558 196.59 184.574 196.752C184.591 196.914 184.637 197.081 184.712 197.253C184.787 197.419 184.883 197.587 185 197.756ZM188.558 193.402L190.857 196.739L189.636 197.65L186.639 193.3L187.785 192.444L188.558 193.402ZM189.101 191.413L189.888 192.597C189.83 192.628 189.758 192.672 189.67 192.729C189.581 192.784 189.507 192.833 189.447 192.878C189.29 192.995 189.169 193.116 189.082 193.242C188.995 193.363 188.94 193.49 188.916 193.621C188.895 193.751 188.905 193.885 188.946 194.025C188.985 194.162 189.054 194.303 189.154 194.448L188.843 194.504C188.645 194.217 188.492 193.934 188.382 193.654C188.272 193.375 188.21 193.109 188.194 192.857C188.177 192.602 188.21 192.37 188.295 192.161C188.38 191.951 188.519 191.775 188.712 191.63C188.774 191.584 188.841 191.54 188.912 191.499C188.983 191.459 189.046 191.43 189.101 191.413ZM193.978 192.936L190.392 187.733L191.621 186.816L195.877 192.992L194.773 193.816L193.978 192.936ZM190.548 193.755L190.49 193.67C190.263 193.341 190.091 193.014 189.975 192.691C189.859 192.363 189.803 192.049 189.807 191.751C189.811 191.447 189.879 191.165 190.011 190.904C190.144 190.643 190.343 190.413 190.609 190.214C190.854 190.031 191.107 189.928 191.367 189.904C191.625 189.878 191.888 189.917 192.154 190.023C192.421 190.124 192.688 190.28 192.956 190.49C193.221 190.698 193.483 190.943 193.741 191.225L193.841 191.37C194.008 191.699 194.14 192.025 194.236 192.348C194.334 192.668 194.386 192.976 194.393 193.272C194.4 193.563 194.349 193.834 194.242 194.085C194.135 194.331 193.958 194.546 193.71 194.731C193.444 194.93 193.17 195.051 192.888 195.095C192.609 195.137 192.332 195.111 192.057 195.015C191.782 194.92 191.515 194.766 191.258 194.552C191.002 194.337 190.766 194.071 190.548 193.755ZM191.711 192.759L191.769 192.843C191.887 193.015 192.009 193.166 192.134 193.296C192.261 193.424 192.393 193.522 192.528 193.592C192.663 193.662 192.799 193.694 192.938 193.688C193.074 193.68 193.21 193.625 193.346 193.524C193.528 193.387 193.649 193.232 193.707 193.059C193.763 192.883 193.768 192.695 193.721 192.495C193.674 192.294 193.58 192.09 193.441 191.882L193.15 191.459C193.032 191.288 192.908 191.146 192.78 191.035C192.652 190.924 192.522 190.846 192.389 190.803C192.26 190.758 192.128 190.748 191.996 190.774C191.862 190.797 191.727 190.859 191.591 190.961C191.458 191.06 191.367 191.177 191.317 191.311C191.266 191.443 191.249 191.587 191.267 191.745C191.287 191.9 191.335 192.065 191.412 192.239C191.489 192.409 191.589 192.582 191.711 192.759Z" fill="white"/>
<path fill-rule="evenodd" clip-rule="evenodd" d="M308.714 132.126C322.374 138.129 350.189 219.83 334.2 235.051C318.211 250.271 212.799 223.458 212.799 223.458C209.778 224.713 202.24 226.339 198.79 224.355C193.599 221.356 196.793 214.66 195.162 211.249C193.07 206.864 178.128 216.731 178.73 208.237C179.105 203.213 203.329 200.402 210.907 203.585C213.617 204.719 214.399 207.752 214.399 207.752C214.399 207.752 289.479 214.991 297.296 209.275C306.962 202.195 282.732 176.667 286.503 147.811C288.823 130.073 301.214 128.824 308.714 132.126Z" fill="#CF9A83"/>
<mask id="mask2_1_6313" style="mask-type:luminance" maskUnits="userSpaceOnUse" x="178" y="130" width="162" height="110">
<path d="M308.714 132.126C322.374 138.129 350.189 219.83 334.2 235.051C318.211 250.271 212.799 223.458 212.799 223.458C209.778 224.713 202.24 226.339 198.79 224.355C193.599 221.356 196.793 214.66 195.162 211.249C193.07 206.864 178.128 216.731 178.73 208.237C179.105 203.213 203.329 200.402 210.907 203.585C213.617 204.719 214.399 207.752 214.399 207.752C214.399 207.752 289.479 214.991 297.296 209.275C306.962 202.195 282.732 176.667 286.503 147.811C288.823 130.073 301.214 128.824 308.714 132.126Z" fill="white"/>
</mask>
<g mask="url(#mask2_1_6313)">
<path fill-rule="evenodd" clip-rule="evenodd" d="M287.147 185.088C288.911 181.434 294.331 179.576 297.71 178.344C301.28 177.04 305.085 176.464 308.862 177.038C314.548 177.9 319.641 181.021 325.371 181.58C329.634 181.994 334.134 180.798 337.838 178.583C339.57 177.55 341.109 176.201 342.383 174.601C349.887 165.127 343.65 149.93 338.73 140.828C333.194 130.585 324.488 121.111 313.482 117.446C296.417 111.757 278.807 123.496 273.004 140.294C270.742 146.949 270.056 154.074 271.003 161.063C272.097 169.371 275.145 177.518 280.538 183.813L287.147 185.088Z" fill="#4692B6"/>
</g>
<path fill-rule="evenodd" clip-rule="evenodd" d="M263.911 122.63C263.911 122.63 271.923 116.461 270.054 109.966C269.576 108.261 265.959 113.066 262.698 110.986C258.245 108.125 257.171 91.6368 262.201 83.0581C265.322 77.741 276.296 74.5517 279.875 78.1736C283.454 81.7955 284.865 97.2332 283.633 104.792C281.684 116.851 292.241 124.105 292.241 124.105C292.241 124.105 274.706 138.714 270.292 150.841C269 154.401 263.911 122.63 263.911 122.63Z" fill="#CF9A83"/>
<mask id="mask3_1_6313" style="mask-type:luminance" maskUnits="userSpaceOnUse" x="258" y="76" width="35" height="76">
<path d="M263.911 122.63C263.911 122.63 271.923 116.461 270.054 109.966C269.576 108.261 265.959 113.066 262.698 110.986C258.245 108.125 257.171 91.6368 262.201 83.0581C265.322 77.741 276.296 74.5517 279.875 78.1736C283.454 81.7955 284.865 97.2332 283.633 104.792C281.684 116.851 292.241 124.105 292.241 124.105C292.241 124.105 274.706 138.714 270.292 150.841C269 154.401 263.911 122.63 263.911 122.63Z" fill="white"/>
</mask>
<g mask="url(#mask3_1_6313)">
<path fill-rule="evenodd" clip-rule="evenodd" d="M267.964 110.853C268.6 110.495 269.117 109.764 269.595 109.218C270.691 107.995 271.701 106.691 272.617 105.317C272.955 104.77 273.292 104.212 273.67 103.671C273.75 103.535 273.968 103.137 274.167 103.137C274.366 103.137 274.247 103.82 274.227 103.909C274.094 104.864 273.881 105.806 273.591 106.723C272.497 110.477 270.251 113.288 267.845 116.208L267.964 110.853Z" fill="black" fill-opacity="0.1"/>
</g>
<path fill-rule="evenodd" clip-rule="evenodd" d="M264.647 90.0238C263.155 89.9308 261.764 89.0243 260.611 88.0971C256.177 84.5414 256.476 78.3551 260.332 74.4558C262.658 72.1151 267.43 70.5525 269.657 73.8476C270.372 72.792 271.863 72.3447 272.996 72.0696C273.916 71.8154 274.871 71.7285 275.82 71.8128C282.301 72.7216 280.79 81.2008 285.72 83.9122C287.331 82.8338 289.1 86.3584 289.418 87.4326C290.512 91.1684 290.035 97.5532 285.899 99.0434C285.541 100.047 284.627 100.753 283.812 101.332C281.565 102.94 277.947 104.091 275.442 102.429C275.141 102.226 274.866 101.983 274.627 101.705C272.838 99.633 274.726 97.2716 275.323 95.1192C275.641 93.9848 275.899 92.5651 274.945 91.6732C274.17 90.9737 273.394 91.3709 272.778 92.0464C271.843 93.075 271.327 94.6956 269.835 94.9854C267.688 95.3993 265.601 93.2509 264.925 91.7441C264.785 91.4249 264.647 90.0238 264.647 90.0238Z" fill="black"/>
<path fill-rule="evenodd" clip-rule="evenodd" d="M250.939 73.578C250.939 72.8504 250.744 72.1372 250.375 71.5195C250.006 70.9017 249.478 70.4041 248.85 70.0832L168.998 29.2009C168.428 28.9109 167.795 28.7765 167.161 28.8104C166.527 28.8444 165.911 29.0455 165.372 29.3949C164.833 29.7443 164.388 30.2306 164.079 30.8081C163.769 31.3857 163.606 32.0355 163.604 32.6967V46.4539C163.606 47.1809 163.802 47.8931 164.171 48.5104C164.54 49.1278 165.067 49.6258 165.692 49.9487L245.56 90.8387C246.13 91.13 246.763 91.265 247.397 91.2309C248.032 91.1968 248.647 90.9947 249.186 90.6438C249.724 90.2928 250.168 89.8046 250.474 89.2254C250.781 88.6462 250.941 87.9951 250.938 87.3337L250.939 73.578Z" fill="#4692B6"/>
<path fill-rule="evenodd" clip-rule="evenodd" d="M174.869 49.5722L173.169 47.5708L175.38 45.2323L171.472 42.1537L171.994 40.4203L175.903 43.4983L175.696 39.2545L177.717 40.1834L177.924 44.4273L181.705 44.8828L182.424 47.1869L178.643 46.7312L181.189 51.2561L179.612 51.7519L177.079 47.2312L174.869 49.5722ZM188.934 56.7647L187.235 54.7631L189.445 52.4246L185.537 49.3468L186.059 47.6133L189.968 50.6912L189.761 46.4476L191.783 47.3765L191.989 51.6201L195.77 52.0758L196.489 54.3797L192.709 53.9242L195.254 58.4492L193.677 58.9447L191.144 54.4243L188.934 56.7647ZM204.005 63.7622L202.306 61.7608L204.516 59.4224L200.608 56.3445L201.13 54.6111L205.039 57.6892L204.832 53.4453L206.853 54.3743L207.06 58.6181L210.841 59.0736L211.56 61.3777L207.779 60.922L210.325 65.4469L208.748 65.9427L206.215 61.422L204.005 63.7622ZM218.721 72.0158L217.022 70.0142L219.233 67.6757L215.324 64.5976L215.847 62.8644L219.755 65.9422L219.548 61.6986L221.57 62.6276L221.776 66.8712L225.557 67.3269L226.276 69.6308L222.496 69.1753L225.041 73.7L223.464 74.1958L220.931 69.6753L218.721 72.0158ZM234.25 79.9664L232.551 77.965L234.762 75.6265L230.854 72.5487L231.376 70.8152L235.285 73.8933L235.078 69.6495L237.099 70.5784L237.306 74.8222L241.087 75.2777L241.806 77.5819L238.025 77.1261L240.571 81.6511L238.994 82.1469L236.46 77.6262L234.25 79.9664Z" fill="white"/>
<path fill-rule="evenodd" clip-rule="evenodd" d="M200.736 73.3671C201.979 71.8993 209.441 68.3632 211.399 68.0794C214.523 67.6017 217.463 69.7317 216.38 72.8238C215.95 74.0134 206.499 76.7467 203.899 76.8437C202.835 76.8788 200.24 73.9487 200.736 73.3671Z" fill="#CF9A83"/>
<path d="M263.404 70.6431C266.243 70.6431 268.544 68.2473 268.544 65.2919C268.544 62.3366 266.243 59.9408 263.404 59.9408C260.565 59.9408 258.264 62.3366 258.264 65.2919C258.264 68.2473 260.565 70.6431 263.404 70.6431Z" fill="#96B6C5"/>
<path d="M257.186 57.0201C257.513 58.1118 258.162 59.0687 259.04 59.7557C259.918 60.4427 260.981 60.8251 262.08 60.8487C263.454 60.8487 265 60.3039 266.434 58.5003C270.257 53.694 263.22 45.2232 272.7 34.9812C282.179 24.7392 283.166 6.58368 266.14 5.37712C253.137 4.46163 247.818 12.8801 246.322 18.1492V23.4904L255.455 27.222C255.455 27.222 258.949 16.1863 264.701 17.5919C270.453 18.9975 265.036 28.8937 261.406 32.6552C253.407 40.9468 255.721 52.281 257.186 57.0201Z" fill="#96B6C5"/>
<path d="M257.187 50.2562C257.517 51.3465 258.166 52.302 259.044 52.9886C259.921 53.6753 260.983 54.0586 262.081 54.0849C263.455 54.0849 265.001 53.4356 266.435 51.6344C270.259 46.8256 262.733 42.0467 272.216 31.8047C281.698 21.5626 283.175 1.25273 266.148 0.0536398C249.122 -1.14545 246.331 18.1569 246.331 18.1569L255.464 21.8885C255.464 21.8885 258.951 10.8654 264.703 12.266C270.455 13.6666 265.037 23.5653 261.407 27.3292C253.409 35.6134 255.722 45.5171 257.187 50.2562Z" fill="#E8E0D0"/>
<path d="M263.404 67.1428C266.243 67.1428 268.544 64.747 268.544 61.7917C268.544 58.8363 266.243 56.4406 263.404 56.4406C260.565 56.4406 258.264 58.8363 258.264 61.7917C258.264 64.747 260.565 67.1428 263.404 67.1428Z" fill="#E8E0D0"/>
</svg>
