<svg width="340" height="340" viewBox="0 0 340 340" fill="none" xmlns="http://www.w3.org/2000/svg">
<path d="M125.051 154.05C148.838 154.05 168.121 129.57 168.121 99.3716C168.121 69.1736 148.838 44.6934 125.051 44.6934C101.264 44.6934 81.9813 69.1736 81.9813 99.3716C81.9813 129.57 101.264 154.05 125.051 154.05Z" fill="#F7EDD9"/>
<path d="M96.9246 81.5396H113.822" stroke="white" stroke-width="3" stroke-miterlimit="10" stroke-linecap="round"/>
<path d="M96.9246 87.7227H113.822" stroke="white" stroke-width="3" stroke-miterlimit="10" stroke-linecap="round"/>
<path d="M96.9246 93.905H113.822" stroke="white" stroke-width="3" stroke-miterlimit="10" stroke-linecap="round"/>
<path d="M318.504 179.04V166.96C318.504 164.656 317.783 162.447 316.5 160.818C315.217 159.189 313.477 158.274 311.662 158.274H287.514C286.615 158.274 285.726 158.049 284.896 157.613C284.066 157.176 283.311 156.537 282.676 155.73C282.041 154.924 281.537 153.966 281.193 152.912C280.849 151.859 280.672 150.729 280.672 149.589V137.508C280.672 136.368 280.849 135.238 281.193 134.185C281.537 133.131 282.041 132.173 282.676 131.367C283.311 130.56 284.066 129.921 284.896 129.484C285.726 129.048 286.615 128.823 287.514 128.823H288.276C290.091 128.823 291.831 127.908 293.114 126.279C294.397 124.65 295.118 122.441 295.118 120.137V108.057C295.118 105.754 294.397 103.545 293.114 101.916C291.831 100.287 290.091 99.3717 288.276 99.3717H67.5863C65.7718 99.3717 64.0317 100.287 62.7486 101.916C61.4656 103.545 60.7448 105.754 60.7448 108.057V120.137C60.7448 122.441 61.4656 124.65 62.7486 126.279C64.0317 127.908 65.7718 128.823 67.5863 128.823C69.4008 128.823 71.141 129.738 72.424 131.367C73.7071 132.996 74.4279 135.205 74.4279 137.508V149.589C74.4279 151.892 73.7071 154.101 72.424 155.73C71.141 157.359 69.4008 158.274 67.5863 158.274H41.1294C39.3149 158.274 37.5747 159.189 36.2917 160.818C35.0087 162.447 34.2879 164.656 34.2879 166.96V179.04C34.2879 181.343 35.0087 183.553 36.2917 185.181C37.5747 186.81 39.3149 187.725 41.1294 187.725H51.5107C53.3252 187.725 55.0654 188.64 56.3484 190.269C57.6315 191.898 58.3523 194.107 58.3523 196.411V208.491C58.3523 210.795 57.6315 213.004 56.3484 214.633C55.0654 216.262 53.3252 217.177 51.5107 217.177H51.4856C49.6711 217.177 47.9309 218.092 46.6479 219.721C45.3649 221.349 44.6441 223.559 44.6441 225.862V237.942C44.6441 240.246 45.3649 242.455 46.6479 244.084C47.931 245.713 49.6711 246.628 51.4856 246.628H52.9876C53.886 246.628 54.7757 246.852 55.6058 247.289C56.4358 247.725 57.19 248.365 57.8253 249.172C58.4606 249.978 58.9646 250.936 59.3084 251.99C59.6522 253.043 59.8292 254.173 59.8292 255.313V267.393C59.8292 268.534 59.6522 269.664 59.3084 270.717C58.9646 271.771 58.4606 272.729 57.8253 273.535C57.19 274.342 56.4358 274.981 55.6058 275.418C54.7757 275.854 53.886 276.079 52.9876 276.079H28.3378C26.5233 276.079 24.7832 276.994 23.5001 278.623C22.2171 280.252 21.4963 282.461 21.4963 284.765V296.845C21.4963 297.985 21.6732 299.115 22.0171 300.169C22.3609 301.222 22.8648 302.18 23.5001 302.986C24.1354 303.793 24.8896 304.433 25.7197 304.869C26.5497 305.306 27.4394 305.53 28.3378 305.53H291.949C293.764 305.53 295.504 304.615 296.787 302.986C298.07 301.357 298.791 299.148 298.791 296.845V284.765C298.791 282.461 298.07 280.252 296.787 278.623C295.504 276.994 293.764 276.079 291.949 276.079H286.017C285.119 276.079 284.229 275.854 283.399 275.418C282.569 274.981 281.815 274.342 281.18 273.535C280.544 272.729 280.04 271.771 279.697 270.717C279.353 269.664 279.176 268.534 279.176 267.393V255.313C279.176 254.173 279.353 253.043 279.697 251.99C280.04 250.936 280.544 249.978 281.18 249.172C281.815 248.365 282.569 247.725 283.399 247.289C284.229 246.852 285.119 246.628 286.017 246.628H300.004C301.819 246.628 303.559 245.713 304.842 244.084C306.125 242.455 306.846 240.246 306.846 237.942V225.862C306.846 224.722 306.669 223.592 306.325 222.538C305.981 221.485 305.477 220.527 304.842 219.721C304.207 218.914 303.453 218.274 302.622 217.838C301.792 217.401 300.903 217.177 300.004 217.177H295.761C293.947 217.177 292.207 216.262 290.924 214.633C289.641 213.004 288.92 210.795 288.92 208.491V196.411C288.92 194.107 289.641 191.898 290.924 190.269C292.207 188.64 293.947 187.725 295.761 187.725H311.662C313.477 187.725 315.217 186.81 316.5 185.181C317.783 183.553 318.504 181.343 318.504 179.04Z" fill="#E8E0D0"/>
<path d="M245.091 34.4695H113.761C111.161 34.4695 109.053 37.1453 109.053 40.446V290.505C109.053 293.806 111.161 296.482 113.761 296.482H245.091C247.691 296.482 249.799 293.806 249.799 290.505V40.446C249.799 37.1453 247.691 34.4695 245.091 34.4695Z" fill="#6AA5C0"/>
<path d="M236.59 47.2899H122.261C119.661 47.2899 117.554 49.9657 117.554 53.2665V277.686C117.554 280.986 119.661 283.662 122.261 283.662H236.59C239.19 283.662 241.298 280.986 241.298 277.686V53.2665C241.298 49.9657 239.19 47.2899 236.59 47.2899Z" fill="#F7EDD9"/>
<path d="M179.426 141.154C192.236 141.154 202.621 127.971 202.621 111.708C202.621 95.445 192.236 82.2614 179.426 82.2614C166.616 82.2614 156.232 95.445 156.232 111.708C156.232 127.971 166.616 141.154 179.426 141.154Z" fill="#CEE5F0"/>
<path d="M175.529 109.14V103.017C175.529 102.403 175.625 101.795 175.811 101.228C175.997 100.662 176.27 100.147 176.613 99.7153C176.957 99.2832 177.365 98.9418 177.813 98.7109C178.261 98.4799 178.74 98.364 179.224 98.3697H179.626C180.11 98.3637 180.59 98.4795 181.038 98.7104C181.486 98.9413 181.894 99.2827 182.237 99.7148C182.581 100.147 182.854 100.661 183.04 101.228C183.226 101.795 183.322 102.403 183.321 103.017V105.079C183.322 105.218 183.366 105.35 183.443 105.448C183.519 105.546 183.623 105.602 183.732 105.604L185.678 105.615C185.733 105.616 185.787 105.602 185.837 105.576C185.887 105.55 185.933 105.511 185.972 105.462C186.01 105.414 186.041 105.356 186.062 105.292C186.083 105.228 186.094 105.16 186.094 105.091V103.358C186.094 102.295 185.929 101.243 185.609 100.261C185.288 99.2791 184.818 98.3871 184.226 97.6359C183.634 96.8848 182.931 96.2893 182.157 95.8835C181.383 95.4778 180.554 95.2697 179.717 95.2711H179.134C178.297 95.2702 177.468 95.4787 176.694 95.8847C175.921 96.2907 175.218 96.8862 174.626 97.6373C174.034 98.3883 173.564 99.2802 173.244 100.262C172.923 101.243 172.759 102.296 172.759 103.358V109.303L175.529 109.14Z" fill="white"/>
<path d="M187.014 126.746C187.502 126.745 187.968 126.498 188.313 126.061C188.657 125.624 188.851 125.031 188.852 124.413V111.142C188.851 110.524 188.657 109.931 188.313 109.494C187.968 109.057 187.502 108.81 187.014 108.809H171.838C171.351 108.81 170.884 109.057 170.54 109.494C170.195 109.931 170.001 110.524 170 111.142V124.413C170.001 125.031 170.195 125.624 170.54 126.061C170.884 126.499 171.351 126.745 171.838 126.746L187.014 126.746Z" fill="#96B6C5"/>
<path d="M179.426 113.361C178.904 113.363 178.405 113.627 178.036 114.096C177.667 114.564 177.459 115.199 177.457 115.862C177.466 116.238 177.543 116.606 177.682 116.939C177.821 117.271 178.018 117.559 178.258 117.779V120.714C178.258 121.107 178.381 121.484 178.6 121.763C178.819 122.041 179.116 122.197 179.426 122.197C179.736 122.197 180.033 122.041 180.253 121.763C180.472 121.484 180.595 121.107 180.595 120.714V117.779C180.834 117.558 181.031 117.271 181.17 116.938C181.309 116.606 181.386 116.238 181.395 115.862C181.394 115.199 181.186 114.564 180.817 114.096C180.448 113.627 179.948 113.363 179.426 113.361ZM117.554 250.698V278.654C117.554 279.312 117.656 279.963 117.854 280.571C118.053 281.178 118.343 281.73 118.709 282.195C119.076 282.66 119.511 283.029 119.989 283.281C120.468 283.533 120.981 283.662 121.499 283.662H237.354C237.872 283.662 238.385 283.533 238.863 283.281C239.342 283.029 239.777 282.66 240.143 282.195C240.509 281.73 240.8 281.178 240.998 280.571C241.196 279.963 241.298 279.312 241.298 278.654V250.698H117.554ZM241.298 52.2978C241.298 51.6402 241.196 50.989 240.998 50.3814C240.8 49.7738 240.509 49.2217 240.143 48.7567C239.777 48.2917 239.342 47.9228 238.863 47.6711C238.385 47.4194 237.872 47.2899 237.354 47.2899H121.499C120.981 47.2899 120.468 47.4194 119.989 47.6711C119.511 47.9228 119.076 48.2917 118.709 48.7567C118.343 49.2217 118.053 49.7738 117.854 50.3814C117.656 50.989 117.554 51.6402 117.554 52.2978V62.3136H241.298V52.2978Z" fill="#ADC4CE"/>
<path d="M179.426 55.7029C183.086 55.7029 186.053 51.9362 186.053 47.2898C186.053 42.6435 183.086 38.8768 179.426 38.8768C175.766 38.8768 172.799 42.6435 172.799 47.2898C172.799 51.9362 175.766 55.7029 179.426 55.7029Z" fill="#CEE5F0"/>
<path d="M179.426 275.593C183.086 275.593 186.053 271.826 186.053 267.18C186.053 262.533 183.086 258.767 179.426 258.767C175.766 258.767 172.799 262.533 172.799 267.18C172.799 271.826 175.766 275.593 179.426 275.593Z" fill="#CEE5F0"/>
<path d="M167.443 151.454H132.397C131.53 151.454 130.828 152.346 130.828 153.446V166.383C130.828 167.483 131.53 168.375 132.397 168.375H167.443C168.31 168.375 169.012 167.483 169.012 166.383V153.446C169.012 152.346 168.31 151.454 167.443 151.454Z" fill="#4184A4"/>
<path d="M226.771 151.454H183.52C182.653 151.454 181.951 152.346 181.951 153.446V227.224C181.951 228.324 182.653 229.216 183.52 229.216H226.771C227.638 229.216 228.34 228.324 228.34 227.224V153.446C228.34 152.346 227.638 151.454 226.771 151.454Z" fill="#CEE5F0"/>
<path d="M167.443 181.874H132.397C131.53 181.874 130.828 182.766 130.828 183.866V196.803C130.828 197.903 131.53 198.795 132.397 198.795H167.443C168.31 198.795 169.012 197.903 169.012 196.803V183.866C169.012 182.766 168.31 181.874 167.443 181.874Z" fill="#4184A4"/>
<path d="M167.443 212.295H132.397C131.53 212.295 130.828 213.187 130.828 214.287V227.224C130.828 228.324 131.53 229.216 132.397 229.216H167.443C168.31 229.216 169.012 228.324 169.012 227.224V214.287C169.012 213.187 168.31 212.295 167.443 212.295Z" fill="#4184A4"/>
<path d="M205.145 206.897H191.778C191.52 206.897 191.267 206.811 191.043 206.647C190.82 206.484 190.634 206.248 190.505 205.964C190.376 205.681 190.308 205.359 190.308 205.031C190.308 204.704 190.376 204.382 190.505 204.098L197.189 189.402L203.872 174.705C204.001 174.421 204.187 174.186 204.41 174.022C204.634 173.858 204.887 173.772 205.145 173.772C205.403 173.772 205.657 173.858 205.88 174.022C206.104 174.186 206.289 174.421 206.418 174.705L213.102 189.402L219.786 204.098C219.915 204.382 219.983 204.704 219.983 205.031C219.983 205.359 219.915 205.681 219.786 205.964C219.657 206.248 219.471 206.484 219.248 206.647C219.024 206.811 218.771 206.897 218.513 206.897H205.145Z" fill="#4184A4"/>
<path d="M205.881 182.474C205.881 181.958 205.552 181.54 205.146 181.54C204.739 181.54 204.41 181.958 204.41 182.474V196.391C204.41 196.907 204.739 197.325 205.146 197.325C205.552 197.325 205.881 196.907 205.881 196.391V182.474Z" fill="white"/>
<path d="M206.896 201.687C206.992 200.459 206.286 199.366 205.319 199.244C204.352 199.123 203.491 200.019 203.395 201.246C203.299 202.474 204.005 203.567 204.972 203.689C205.939 203.81 206.8 202.914 206.896 201.687Z" fill="white"/>
<path d="M91.0428 251.542V235.914C91.043 234.346 91.2877 232.795 91.7628 231.348C92.2379 229.902 92.9341 228.59 93.8111 227.487C94.6881 226.384 95.7285 225.512 96.8722 224.923C98.016 224.333 99.2404 224.037 100.475 224.052H101.501C102.736 224.037 103.96 224.332 105.104 224.922C106.248 225.511 107.289 226.382 108.166 227.485C109.043 228.588 109.739 229.901 110.214 231.348C110.689 232.794 110.934 234.346 110.933 235.914V241.178C110.935 241.532 111.046 241.869 111.243 242.12C111.439 242.37 111.704 242.513 111.982 242.517L116.949 242.546C117.088 242.547 117.226 242.513 117.354 242.446C117.483 242.379 117.6 242.28 117.698 242.156C117.797 242.031 117.875 241.884 117.928 241.721C117.982 241.558 118.009 241.383 118.01 241.207V236.785C118.01 234.072 117.589 231.386 116.771 228.879C115.953 226.373 114.754 224.096 113.242 222.179C111.73 220.262 109.935 218.742 107.96 217.706C105.985 216.67 103.869 216.139 101.732 216.143H100.244C98.1078 216.141 95.992 216.673 94.0178 217.709C92.0435 218.745 90.2495 220.265 88.7383 222.182C87.2271 224.1 86.0283 226.376 85.2105 228.881C84.3926 231.387 83.9718 234.073 83.972 236.785V251.96L91.0428 251.542Z" fill="#4184A4"/>
<path d="M110.939 251.542V235.913C110.939 234.346 110.694 232.795 110.219 231.348C109.744 229.902 109.048 228.589 108.171 227.487C107.294 226.384 106.253 225.512 105.109 224.923C103.966 224.333 102.741 224.037 101.507 224.052H100.48C99.2458 224.037 98.0212 224.332 96.8772 224.921C95.7332 225.511 94.6926 226.382 93.8155 227.485C92.9385 228.588 92.2423 229.901 91.7673 231.348C91.2924 232.794 91.048 234.346 91.0483 235.913V241.178C91.0462 241.531 90.9351 241.869 90.739 242.12C90.5429 242.37 90.2774 242.513 89.9993 242.517L85.0323 242.546C84.8934 242.547 84.7557 242.513 84.6272 242.446C84.4987 242.379 84.3818 242.28 84.2833 242.156C84.1848 242.031 84.1066 241.883 84.0532 241.721C83.9998 241.558 83.9722 241.383 83.972 241.207V236.785C83.9714 234.072 84.3922 231.385 85.2103 228.879C86.0283 226.373 87.2276 224.096 88.7395 222.179C90.2514 220.262 92.0462 218.742 94.0212 217.706C95.9962 216.67 98.1128 216.139 100.25 216.143H101.737C103.874 216.14 105.99 216.673 107.964 217.709C109.938 218.745 111.732 220.265 113.243 222.182C114.755 224.099 115.953 226.376 116.771 228.881C117.589 231.387 118.01 234.073 118.01 236.785V251.96L110.939 251.542Z" fill="#4184A4"/>
<path d="M120.36 296.482C121.603 296.478 122.794 295.85 123.673 294.734C124.553 293.617 125.048 292.105 125.051 290.526V256.654C125.048 255.075 124.553 253.563 123.673 252.447C122.794 251.33 121.603 250.702 120.36 250.698H81.6221C80.3788 250.702 79.1874 251.33 78.3082 252.447C77.4291 253.563 76.9338 255.075 76.9308 256.654V290.526C76.9338 292.105 77.4291 293.617 78.3082 294.734C79.1874 295.85 80.3788 296.478 81.6221 296.482H120.36Z" fill="#4184A4"/>
<path d="M100.991 262.317C99.659 262.322 98.3831 262.997 97.4414 264.193C96.4998 265.388 95.969 267.008 95.9648 268.699C95.9878 269.659 96.184 270.6 96.5382 271.448C96.8925 272.297 97.3953 273.031 98.0082 273.595V281.084C98.0092 282.087 98.3239 283.049 98.8832 283.758C99.4424 284.467 100.2 284.866 100.991 284.866C101.781 284.866 102.539 284.467 103.099 283.758C103.658 283.049 103.973 282.087 103.974 281.084V273.595C104.585 273.03 105.088 272.296 105.442 271.447C105.796 270.599 105.993 269.659 106.017 268.699C106.013 267.008 105.482 265.388 104.54 264.193C103.599 262.997 102.323 262.322 100.991 262.317Z" fill="white"/>
<path d="M32.4575 284.88H49.3544" stroke="white" stroke-width="3" stroke-miterlimit="10" stroke-linecap="round"/>
<path d="M32.4575 291.062H49.3544" stroke="white" stroke-width="3" stroke-miterlimit="10" stroke-linecap="round"/>
<path d="M32.4575 297.246H49.3544" stroke="white" stroke-width="3" stroke-miterlimit="10" stroke-linecap="round"/>
<path d="M257.79 188.618H274.686" stroke="white" stroke-width="3" stroke-miterlimit="10" stroke-linecap="round"/>
<path d="M257.79 194.8H274.686" stroke="white" stroke-width="3" stroke-miterlimit="10" stroke-linecap="round"/>
<path d="M257.79 200.983H274.686" stroke="white" stroke-width="3" stroke-miterlimit="10" stroke-linecap="round"/>
<path d="M71.3367 212.73C76.0825 212.73 79.9298 207.846 79.9298 201.821C79.9298 195.796 76.0825 190.911 71.3367 190.911C66.5909 190.911 62.7436 195.796 62.7436 201.821C62.7436 207.846 66.5909 212.73 71.3367 212.73Z" fill="white"/>
<path d="M71.6856 185.26C74.1576 185.26 76.1616 182.716 76.1616 179.578C76.1616 176.439 74.1576 173.895 71.6856 173.895C69.2136 173.895 67.2097 176.439 67.2097 179.578C67.2097 182.716 69.2136 185.26 71.6856 185.26Z" fill="white"/>
<path d="M101.498 187.816C103.637 187.816 105.372 185.614 105.372 182.898C105.372 180.182 103.637 177.98 101.498 177.98C99.3584 177.98 97.624 180.182 97.624 182.898C97.624 185.614 99.3584 187.816 101.498 187.816Z" fill="white"/>
<path d="M87.404 181.397C88.83 181.397 89.986 179.929 89.986 178.119C89.986 176.309 88.83 174.841 87.404 174.841C85.9781 174.841 84.8221 176.309 84.8221 178.119C84.8221 179.929 85.9781 181.397 87.404 181.397Z" fill="white"/>
<path d="M90.405 203.868C93.8234 203.868 96.5945 200.35 96.5945 196.01C96.5945 191.67 93.8234 188.152 90.405 188.152C86.9866 188.152 84.2154 191.67 84.2154 196.01C84.2154 200.35 86.9866 203.868 90.405 203.868Z" fill="white"/>
<path d="M278.237 293.715C282.982 293.715 286.83 288.831 286.83 282.806C286.83 276.781 282.982 271.896 278.237 271.896C273.491 271.896 269.644 276.781 269.644 282.806C269.644 288.831 273.491 293.715 278.237 293.715Z" fill="white"/>
<path d="M260.048 293.864C262.52 293.864 264.524 291.32 264.524 288.182C264.524 285.044 262.52 282.5 260.048 282.5C257.576 282.5 255.572 285.044 255.572 288.182C255.572 291.32 257.576 293.864 260.048 293.864Z" fill="white"/>
<path d="M260.048 273.037C263.467 273.037 266.238 269.519 266.238 265.179C266.238 260.84 263.467 257.322 260.048 257.322C256.63 257.322 253.859 260.84 253.859 265.179C253.859 269.519 256.63 273.037 260.048 273.037Z" fill="white"/>
<path d="M278.938 100.243C283.683 100.243 287.531 95.3587 287.531 89.3337C287.531 83.3087 283.683 78.4244 278.938 78.4244C274.192 78.4244 270.344 83.3087 270.344 89.3337C270.344 95.3587 274.192 100.243 278.938 100.243Z" fill="white"/>
<path d="M261.892 105.161C264.032 105.161 265.766 102.959 265.766 100.243C265.766 97.5267 264.032 95.3248 261.892 95.3248C259.753 95.3248 258.018 97.5267 258.018 100.243C258.018 102.959 259.753 105.161 261.892 105.161Z" fill="white"/>
<path d="M257.143 89.3336C260.561 89.3336 263.333 85.8155 263.333 81.4758C263.333 77.136 260.561 73.6179 257.143 73.6179C253.725 73.6179 250.953 77.136 250.953 81.4758C250.953 85.8155 253.725 89.3336 257.143 89.3336Z" fill="white"/>
</svg>
